<svg width="179" height="60" viewBox="0 0 179 60" fill="none" xmlns="http://www.w3.org/2000/svg">
<path d="M78.0481 0.411983C77.7047 0.92704 77.43 43.8827 77.7734 45.5652L77.9794 46.7327L81.6535 46.6297L85.3276 46.5266L85.5336 44.9815C85.8426 42.8182 85.9113 3.91436 85.6366 1.75113L85.3962 -6.10352e-05H81.8595C79.4216 -6.10352e-05 78.2541 0.137287 78.0481 0.411983Z" fill="white"/>
<path d="M4.05177 15.0053L3.94876 20.7739L1.99155 20.8769L0 20.9799V24.0359V27.1263H2.06022H4.12045V37.084V47.0417H8.24089H12.3613V37.084V27.1263H15.6234H18.8854V24.0359V20.9799L15.7264 20.8769L12.533 20.7739L12.43 15.0053L12.3613 9.27099H8.24089H4.12045L4.05177 15.0053Z" fill="white"/>
<path d="M29.5298 19.1601C25.272 20.2932 22.5594 22.5251 20.5335 26.5425C19.5378 28.4998 19.4347 28.9461 19.4347 32.1051C19.4347 35.4015 19.4691 35.6419 20.7396 38.0111C25.169 46.458 35.7792 48.0719 42.4062 41.2731C43.093 40.5864 44.1231 39.0069 44.7412 37.7708C45.7713 35.7105 45.8399 35.2985 45.8399 32.1051C45.8399 29.3238 45.6683 28.3624 45.0845 27.0576C42.2002 20.7052 35.7792 17.4432 29.5298 19.1601ZM37.6677 21.7354C40.3117 23.1088 41.6852 24.4823 42.99 27.0233C43.9857 29.0491 44.1231 29.5985 44.1231 32.0708C44.1231 34.5087 43.9857 35.1268 42.99 37.1527C41.8225 39.5906 39.7966 41.5478 37.2557 42.7496C35.1268 43.7797 30.2853 43.6767 27.8817 42.6123C25.3064 41.4448 22.4907 38.3201 21.7697 35.7792C19.8811 29.3925 22.8685 23.3835 28.9461 21.2203C31.5214 20.2932 35.2985 20.5336 37.6677 21.7354Z" fill="white"/>
<path d="M29.5985 23.3492C27.8473 24.0703 25.7185 25.8558 24.8257 27.401C23.9673 28.8432 23.8643 29.3582 23.8643 32.1052C23.8643 34.8521 23.9673 35.3672 24.7914 36.775C26.5769 39.831 29.7359 41.4105 33.4443 41.1358C38.3201 40.7238 41.8912 36.9467 41.8912 32.1052C41.8912 28.6715 39.728 25.2034 36.6033 23.7269C35.0238 22.9372 31.1094 22.7655 29.5985 23.3492ZM35.8822 25.4095C36.9467 25.8215 38.5948 27.4697 39.3846 28.9462C40.1743 30.457 40.1743 33.7877 39.3503 35.3672C36.4659 40.8955 28.6714 40.7925 26.0618 35.1955C25.4094 33.7877 25.1691 30.9034 25.7185 30.9034C25.8901 30.9034 26.5769 31.1437 27.2293 31.4184C28.8775 32.1052 29.8046 32.0708 31.2124 31.3154C32.9636 30.354 33.7533 28.7402 33.4786 26.4739C33.3069 24.654 33.3069 24.654 34.131 24.8601C34.6117 24.9631 35.4015 25.2378 35.8822 25.4095Z" fill="white"/>
<path d="M59.3344 19.057C58.2356 19.3317 56.7591 19.8467 56.0037 20.2244C53.9778 21.2889 51.4026 23.9672 50.2694 26.2677C49.3423 28.1563 49.2737 28.6027 49.2737 32.105C49.2737 35.5731 49.3767 36.0538 50.3038 37.908C52.1923 41.7538 55.9007 44.5007 60.3302 45.3591C66.1332 46.4579 72.8976 42.4062 74.9234 36.6032C75.6445 34.44 75.7132 30.2508 75.0608 28.0189C73.1379 21.5979 65.7898 17.4088 59.3344 19.057ZM67.4036 21.7696C69.6699 22.9027 71.8674 25.1346 72.8976 27.4009C73.4813 28.6713 73.6186 29.7014 73.653 32.105C73.653 34.852 73.55 35.4014 72.6572 37.1869C71.4554 39.5218 69.2578 41.6507 67.0259 42.6809C64.691 43.7453 59.8838 43.7453 57.6176 42.6809C55.317 41.6507 52.776 39.1098 51.8146 36.9809C50.6471 34.44 50.6471 29.7701 51.7803 27.2978C53.0851 24.4479 55.7634 22.0786 58.8194 21.0828C61.1543 20.3274 65.0687 20.6365 67.4036 21.7696Z" fill="white"/>
<path d="M59.1284 23.3492C55.5573 24.86 53.2224 28.3281 53.2224 32.1395C53.2224 37.2557 57.1712 41.2045 62.3217 41.2045C65.6524 41.2045 68.3307 39.728 70.1163 36.981C71.1807 35.2985 71.2494 35.0238 71.2494 32.1051C71.2494 29.1865 71.1807 28.9118 70.1163 27.2293C69.4295 26.1305 68.2964 24.9974 67.1976 24.3106C65.6181 23.3149 65.1374 23.1775 62.6651 23.1088C61.1543 23.0402 59.5404 23.1775 59.1284 23.3492ZM66.3392 25.9588C72.4512 29.9076 69.5325 39.522 62.2531 39.4876C58.2013 39.4533 54.9393 36.1226 54.9393 32.0021C54.9393 30.766 55.0766 30.6973 56.7591 31.4184C58.373 32.0708 59.1971 32.0708 60.6736 31.3497C62.5621 30.457 63.2488 29.0835 63.0428 26.6799L62.8368 24.654L63.9699 24.8944C64.5537 25.0317 65.6524 25.5124 66.3392 25.9588Z" fill="white"/>
<path d="M98.7534 20.2933C94.8046 21.2547 90.6498 24.7914 89.2077 28.4311C88.5896 30.0106 88.4522 31.0751 88.4179 33.8221C88.4179 37.0154 88.4866 37.4274 89.551 39.6593C90.9932 42.7497 93.2938 44.9129 96.4184 46.2177C98.4787 47.0762 99.1311 47.1792 102.668 47.2135C105.998 47.2135 106.96 47.0762 108.711 46.4237C111.664 45.2906 114.342 42.8184 115.785 39.8997C116.883 37.7021 116.918 37.4618 116.918 33.4787C116.918 29.7016 116.815 29.1865 115.956 27.4354C114.72 24.8601 112.488 22.6968 109.673 21.3234C107.509 20.2589 106.994 20.1559 103.698 20.0529C101.706 19.9842 99.5088 20.0872 98.7534 20.2933ZM106.17 27.1263C111.046 30.1823 110.394 39.1443 105.174 40.8955C104.453 41.1015 103.149 41.2045 102.05 41.1015C99.7148 40.8611 98.0323 39.625 96.8648 37.2901C95.251 34.0624 96.1094 29.5299 98.6503 27.7444C99.2684 27.3323 99.8178 26.886 99.9208 26.7486C100.23 26.3366 101.123 26.1649 102.839 26.1306C104.179 26.1306 104.934 26.3366 106.17 27.1263Z" fill="white"/>
<path d="M133.571 20.2245C131.648 20.8082 129.794 22.0443 128.455 23.5895C127.287 24.9286 126.978 25.1347 126.704 24.7226C126.532 24.4479 126.36 23.7955 126.36 23.2805C126.36 21.3576 126.223 21.2889 122.583 21.2889C119.836 21.2889 119.184 21.3919 119.012 21.8383C118.738 22.5594 118.738 44.9128 119.012 45.9429C119.218 46.6983 119.321 46.7327 122.892 46.6297L126.532 46.5266L126.738 40.0026C126.841 36.3972 127.116 32.8948 127.322 32.2081C128.249 28.8087 130.755 26.4395 133.399 26.4395C134.807 26.4395 136.764 27.4696 137.211 28.431C137.383 28.7401 137.589 32.9635 137.692 37.7707L137.863 46.5266L141.743 46.6297L145.589 46.7327V36.5002C145.589 26.4395 145.555 26.2334 144.765 24.5166C143.907 22.6624 142.43 21.3232 140.336 20.4305C139.031 19.8811 135.082 19.7781 133.571 20.2245Z" fill="white"/>
<path d="M157.264 20.3619C153.761 21.5293 151.186 23.6926 149.435 26.9546C145.692 33.822 148.164 42.3719 154.929 46.046C156.989 47.1791 157.229 47.2134 160.697 47.2134C163.822 47.1791 164.543 47.0761 166.02 46.355C166.947 45.9086 168.286 44.9472 169.007 44.2261C169.728 43.505 170.38 42.9213 170.483 42.9213C170.586 42.9213 170.655 44.0888 170.655 45.4966C170.655 49.8917 169.35 51.7459 165.436 52.9134C163.788 53.4284 162.655 53.5658 161.59 53.4284C159.908 53.1538 156.268 51.5399 155.581 50.7158C155.341 50.3724 154.997 50.1321 154.86 50.1321C154.688 50.1321 153.624 51.2309 152.457 52.6044L150.293 55.0766L151.461 56.0724C154.62 58.7164 160.32 60.3989 164.44 59.9182C170.518 59.2314 174.776 56.5875 176.973 52.1236L178.209 49.6857V35.5045V21.289H174.604C171.96 21.289 170.999 21.392 170.999 21.701C170.999 21.9414 170.861 22.3534 170.689 22.6281C170.449 23.0402 170.071 22.9028 168.732 22.01C167.84 21.4263 166.329 20.7052 165.367 20.4305C163.376 19.8125 158.981 19.8125 157.264 20.3619ZM166.672 26.8172C168.355 27.6413 169.728 28.8088 170.277 29.8046C170.483 30.1823 170.655 32.0708 170.655 33.9593C170.655 37.1527 170.586 37.4617 169.762 38.4575C167.908 40.6207 163.891 41.7195 160.766 40.8611C158.878 40.3804 156.405 38.1485 155.856 36.4659C155.272 34.6461 155.375 31.5557 156.062 30.2166C156.611 29.1522 158.053 27.71 159.29 26.9889C161.59 25.6154 164.165 25.5468 166.672 26.8172Z" fill="white"/>
</svg>
