<svg width="157" height="43" viewBox="0 0 157 43" fill="none" xmlns="http://www.w3.org/2000/svg">
<path d="M7.67294 41.9501L7.95965 36.1119L8.3095 28.0994C8.32916 28.1613 8.37231 28.2183 8.44478 28.2588C9.54339 28.8742 10.693 29.4867 11.9965 29.5038C13.115 29.5183 14.0301 28.9284 14.9267 28.3504C15.073 28.2561 15.2187 28.1622 15.3648 28.0712C15.6808 27.8744 15.3559 27.407 15.0407 27.6034C14.8897 27.6974 14.739 27.7957 14.5876 27.8945C13.7827 28.4196 12.9574 28.958 11.9537 28.9423C10.7912 28.9241 9.74293 28.3367 8.76389 27.7882L8.70585 27.7556C8.5296 27.6568 8.37309 27.7596 8.31786 27.9034C6.29094 26.5309 4.91067 25 3.98015 23.6407C2.51522 21.5005 2.16526 19.7858 2.16526 19.7858C-0.366522 15.6015 -0.239466 13.1892 0.367632 11.1394C0.97473 9.08967 2.45647 8.69627 2.45647 8.69627C2.45647 8.69627 2.35317 6.46558 3.55606 5.83825C4.75891 5.21113 6.29614 5.45995 6.29614 5.45995C6.29614 5.45995 6.20322 3.86304 7.66493 2.428C9.12685 0.993005 12.0511 2.90591 12.0511 2.90591C12.0511 2.90591 12.3813 1.7509 13.7266 0.428923C14.922 -0.745735 17.9671 0.749213 20.1833 1.8372C20.4612 1.97365 20.7261 2.1037 20.9727 2.22128C22.9233 3.15115 23.8953 3.89445 24.4557 5.28029C24.5311 5.46668 24.5992 5.66409 24.6609 5.87568C25.1815 7.65741 25.1308 10.5927 25.1306 10.6042C23.7284 10.8451 22.3349 11.1334 20.9547 11.4726C20.9571 11.4584 20.9591 11.444 20.9597 11.4289C20.9947 10.4633 20.9554 9.3925 20.64 8.46652C20.4855 8.01215 20.18 7.69186 19.7901 7.41108C19.367 7.10633 18.9292 6.81879 18.4894 6.53725C16.6794 5.37862 14.7522 4.39776 12.7437 3.60214C12.3977 3.46509 12.1361 3.96817 12.4826 4.10553C14.3573 4.84813 16.1611 5.75154 17.865 6.81119C18.3 7.08179 18.7278 7.36281 19.1485 7.65389L19.1844 7.67872C19.5684 7.9442 19.9352 8.19773 20.0895 8.65089C20.3889 9.52976 20.4116 10.5539 20.3784 11.47C20.3763 11.5261 20.3886 11.5723 20.4109 11.6092C20.3933 11.6137 20.3758 11.6181 20.3582 11.6225L20.3221 11.6315L20.2955 11.6383C19.2001 11.9213 18.0054 12.2871 17.3782 13.259C17.0688 12.8958 16.8901 12.4487 16.7119 12.0031C16.5956 11.7122 16.4796 11.4219 16.3276 11.156C15.5548 9.80338 14.0029 9.13255 12.6099 8.53095C10.7971 7.74815 9.02531 6.88269 7.30107 5.93065C6.97416 5.75019 6.71605 6.25516 7.03997 6.43404C8.01192 6.97071 8.99861 7.48197 10.0005 7.9647C10.8422 8.37036 11.6958 8.75065 12.5537 9.12297C13.2804 9.43837 14.0204 9.76229 14.6646 10.2206C15.3018 10.6739 15.7672 11.231 16.0689 11.9379C16.1109 12.0364 16.1518 12.1353 16.1925 12.2341C16.4276 12.8036 16.6606 13.3683 17.1157 13.8148C16.9128 14.4798 17.0961 15.1389 17.5652 15.6364C17.5117 15.672 17.4703 15.7282 17.4539 15.8075C17.2621 16.7368 16.6402 17.5639 15.7566 17.9903C14.8749 18.4156 13.8165 18.4009 12.9339 17.9912C12.9301 17.9894 12.9263 17.9879 12.9225 17.9865L12.9192 17.9852C12.5663 16.2591 11.7446 14.6633 10.5308 13.3493C9.2956 12.0123 7.66002 11.158 6.04442 10.3141C5.77066 10.1711 5.49741 10.0284 5.22683 9.88366C4.89738 9.70753 4.63887 10.2124 4.96573 10.3871C5.23877 10.5331 5.51464 10.6768 5.79107 10.8209C7.30853 11.6116 8.8435 12.4114 10.0245 13.6434C11.1559 14.8236 11.9548 16.3089 12.3069 17.8815C12.2767 17.9166 12.2561 17.9637 12.2515 18.0246C12.2049 18.6339 11.7541 19.1052 11.1794 19.327C10.5216 19.5809 9.78571 19.489 9.11606 19.3317C8.36855 19.1559 7.63597 18.9062 6.92355 18.628C6.86163 18.6038 6.7985 18.5796 6.73466 18.5551L6.73382 18.5548C6.14174 18.3276 5.4853 18.0757 5.09782 17.5817C5.07791 17.5564 5.05619 17.5361 5.03323 17.5197C4.81067 16.9838 4.89136 16.3941 5.24936 15.9416C5.39645 16.1926 5.5562 16.4363 5.7312 16.6704C5.98019 17.0035 6.23747 17.3356 6.67309 17.4306C7.03971 17.5103 7.15149 16.9579 6.78627 16.8785C6.49572 16.8151 6.27849 16.4799 6.10937 16.219C6.0792 16.1725 6.05057 16.1283 6.02332 16.0885C5.82405 15.7969 5.64305 15.493 5.4881 15.1773C5.1742 14.5381 4.95036 13.8589 4.82655 13.1617C4.76382 12.8076 4.18219 12.8457 4.24548 13.2031C4.30906 13.5622 4.39615 13.9148 4.50475 14.2605C4.5035 14.2606 4.50223 14.2606 4.50113 14.2605L4.5006 14.2605C4.19337 14.2752 3.89935 14.2366 3.60452 14.1523C3.24455 14.0493 3.13493 14.6022 3.49135 14.7045C3.83373 14.8024 4.18659 14.8391 4.54341 14.822C4.60074 14.8194 4.64826 14.8038 4.68617 14.7797C4.76863 14.991 4.85971 15.1998 4.96018 15.4052C4.32116 16.0245 4.13675 17.007 4.52503 17.8C4.55309 17.8572 4.59336 17.8984 4.6399 17.9261C5.14167 18.5425 5.92002 18.8438 6.65551 19.1286L6.71508 19.1516C7.55118 19.4756 8.42229 19.7803 9.30781 19.9491C10.1004 20.1001 10.9468 20.1017 11.6725 19.7208C12.1646 19.4626 12.5742 19.0381 12.7436 18.5252C13.3726 18.802 14.0694 18.9107 14.749 18.8429C14.041 20.9563 14.3995 23.3401 15.7532 25.1524C15.9726 25.446 16.4573 25.1337 16.2375 24.8392C14.9309 23.0902 14.5972 20.7358 15.4077 18.7199C15.6153 18.6615 15.8186 18.5857 16.0146 18.4911C17.0305 18.0013 17.7588 17.0658 18.0054 16.0013C18.0325 16.0189 18.06 16.0362 18.0881 16.0528C19.2018 16.717 20.6763 16.7429 21.9424 16.7322C22.4209 16.7283 22.8989 16.7122 23.3766 16.6869C23.59 17.8732 24.6036 18.8547 25.8543 19.013C26.2248 19.0599 26.3396 18.5081 25.9675 18.4609C24.9786 18.3356 24.1485 17.5941 23.9601 16.651C24.7694 16.5942 25.5765 16.5095 26.3793 16.3985C26.7487 16.3472 26.7085 15.7854 26.3365 15.8367C24.8676 16.0404 23.3841 16.1582 21.8998 16.1707C20.7555 16.1805 19.4379 16.1614 18.4187 15.5895C18.0228 15.3674 17.6819 15.0217 17.6141 14.5689C17.5371 14.0559 17.8102 13.5454 18.1736 13.1883C18.8521 12.5211 19.9235 12.2791 20.8767 12.0638C21.0369 12.0276 21.1938 11.9922 21.3449 11.9556C22.6112 11.6489 23.8881 11.3865 25.1734 11.1657C25.5342 11.1036 25.5008 10.5561 25.1457 10.6019C25.3628 10.5689 25.5711 10.543 25.7726 10.5226C30.5178 10.0454 31.0126 13.0383 30.9998 15.2846C30.9864 17.6283 28.2225 19.4911 28.2225 19.4911C28.2225 19.4911 27.452 20.452 26.5765 22.3333C26.4843 22.5315 26.391 22.7396 26.2973 22.9583C25.3185 25.2396 22.9955 26.7226 22.9705 26.7385C23.0166 26.51 22.7682 26.2559 22.541 26.4392C21.5396 27.246 20.1307 27.5094 18.9021 27.0594C18.5538 26.9317 18.2911 27.4346 18.641 27.5628C20.0557 28.0808 21.6955 27.8494 22.865 26.9068C22.9248 26.8586 22.958 26.7998 22.9704 26.7392L23.2262 29.96L24.0526 41.444C21.2611 42.45 18.2395 43 15.0849 43C12.5079 43 10.0196 42.633 7.67294 41.9501Z" fill="#388A90"/>
<path d="M50.7993 9.92389V27.2398C50.7993 28.0879 51.0113 28.7122 51.4354 29.1128C51.883 29.4897 52.4838 29.6782 53.2377 29.6782C53.8267 29.6782 54.345 29.5957 54.7926 29.4308C55.2402 29.2423 55.6407 28.995 55.9941 28.6887L56.7715 31.9045C56.2061 32.3521 55.4993 32.7055 54.6512 32.9647C53.8031 33.2238 52.9078 33.3534 51.9655 33.3534C50.7875 33.3534 49.7392 33.1767 48.8204 32.8233C47.9251 32.4699 47.2183 31.9045 46.7 31.1271C46.2053 30.3496 45.9579 29.313 45.9579 28.0173V11.2668L50.7993 9.92389ZM56.4535 15.3307V18.9352H42.7068V15.3307H56.4535ZM64.959 14.9773C66.7495 14.9773 68.3162 15.3425 69.6591 16.0728C71.0255 16.8031 72.0857 17.8515 72.8396 19.2179C73.617 20.5844 74.0057 22.2335 74.0057 24.1653C74.0057 26.0736 73.617 27.7228 72.8396 29.1128C72.0857 30.4792 71.0255 31.5276 69.6591 32.2579C68.3162 32.9882 66.7495 33.3534 64.959 33.3534C63.1921 33.3534 61.6254 32.9882 60.259 32.2579C58.8926 31.5276 57.8207 30.4792 57.0432 29.1128C56.2893 27.7228 55.9124 26.0736 55.9124 24.1653C55.9124 22.2335 56.2893 20.5844 57.0432 19.2179C57.8207 17.8515 58.8926 16.8031 60.259 16.0728C61.6254 15.3425 63.1921 14.9773 64.959 14.9773ZM64.959 18.5818C64.0638 18.5818 63.2981 18.7939 62.662 19.2179C62.0495 19.6184 61.5783 20.231 61.2485 21.0556C60.9187 21.8801 60.7538 22.9167 60.7538 24.1653C60.7538 25.414 60.9187 26.4506 61.2485 27.2751C61.5783 28.0997 62.0495 28.724 62.662 29.1481C63.2981 29.5486 64.0638 29.7488 64.959 29.7488C65.8307 29.7488 66.5728 29.5486 67.1854 29.1481C67.8215 28.724 68.3044 28.0997 68.6343 27.2751C68.9641 26.4506 69.129 25.414 69.129 24.1653C69.129 22.9167 68.9641 21.8801 68.6343 21.0556C68.3044 20.231 67.8215 19.6184 67.1854 19.2179C66.5728 18.7939 65.8307 18.5818 64.959 18.5818ZM83.2868 14.9773C85.0773 14.9773 86.644 15.3425 87.9868 16.0728C89.3533 16.8031 90.4134 17.8515 91.1673 19.2179C91.9448 20.5844 92.3335 22.2335 92.3335 24.1653C92.3335 26.0736 91.9448 27.7228 91.1673 29.1128C90.4134 30.4792 89.3533 31.5276 87.9868 32.2579C86.644 32.9882 85.0773 33.3534 83.2868 33.3534C81.5199 33.3534 79.9532 32.9882 78.5868 32.2579C77.2203 31.5276 76.1484 30.4792 75.371 29.1128C74.6171 27.7228 74.2401 26.0736 74.2401 24.1653C74.2401 22.2335 74.6171 20.5844 75.371 19.2179C76.1484 17.8515 77.2203 16.8031 78.5868 16.0728C79.9532 15.3425 81.5199 14.9773 83.2868 14.9773ZM83.2868 18.5818C82.3916 18.5818 81.6259 18.7939 80.9898 19.2179C80.3773 19.6184 79.9061 20.231 79.5763 21.0556C79.2464 21.8801 79.0815 22.9167 79.0815 24.1653C79.0815 25.414 79.2464 26.4506 79.5763 27.2751C79.9061 28.0997 80.3773 28.724 80.9898 29.1481C81.6259 29.5486 82.3916 29.7488 83.2868 29.7488C84.1585 29.7488 84.9006 29.5486 85.5131 29.1481C86.1492 28.724 86.6322 28.0997 86.962 27.2751C87.2918 26.4506 87.4568 25.414 87.4568 24.1653C87.4568 22.9167 87.2918 21.8801 86.962 21.0556C86.6322 20.231 86.1492 19.6184 85.5131 19.2179C84.9006 18.7939 84.1585 18.5818 83.2868 18.5818ZM98.3281 7.59154V27.5579C98.3281 28.3824 98.4694 28.9596 98.7521 29.2894C99.0348 29.6193 99.506 29.7842 100.166 29.7842C100.566 29.7842 100.896 29.7606 101.155 29.7135C101.414 29.6428 101.744 29.5486 102.145 29.4308L101.721 32.6113C101.32 32.8469 100.814 33.0236 100.201 33.1414C99.612 33.2827 99.0231 33.3534 98.4341 33.3534C96.7143 33.3534 95.4539 32.9411 94.6529 32.1165C93.8754 31.2684 93.4867 29.9255 93.4867 28.0879V7.59154H98.3281ZM110.072 14.9773C111.863 14.9773 113.43 15.3425 114.772 16.0728C116.139 16.8031 117.199 17.8515 117.953 19.2179C118.73 20.5844 119.119 22.2335 119.119 24.1653C119.119 26.0736 118.73 27.7228 117.953 29.1128C117.199 30.4792 116.139 31.5276 114.772 32.2579C113.43 32.9882 111.863 33.3534 110.072 33.3534C108.305 33.3534 106.739 32.9882 105.372 32.2579C104.006 31.5276 102.934 30.4792 102.157 29.1128C101.403 27.7228 101.026 26.0736 101.026 24.1653C101.026 22.2335 101.403 20.5844 102.157 19.2179C102.934 17.8515 104.006 16.8031 105.372 16.0728C106.739 15.3425 108.305 14.9773 110.072 14.9773ZM110.072 18.5818C109.177 18.5818 108.411 18.7939 107.775 19.2179C107.163 19.6184 106.692 20.231 106.362 21.0556C106.032 21.8801 105.867 22.9167 105.867 24.1653C105.867 25.414 106.032 26.4506 106.362 27.2751C106.692 28.0997 107.163 28.724 107.775 29.1481C108.411 29.5486 109.177 29.7488 110.072 29.7488C110.944 29.7488 111.686 29.5486 112.299 29.1481C112.935 28.724 113.418 28.0997 113.748 27.2751C114.077 26.4506 114.242 25.414 114.242 24.1653C114.242 22.9167 114.077 21.8801 113.748 21.0556C113.418 20.231 112.935 19.6184 112.299 19.2179C111.686 18.7939 110.944 18.5818 110.072 18.5818ZM120.343 33V15.3307H124.69L124.972 20.6315L124.372 20.0661C124.654 18.9117 125.102 17.9575 125.714 17.2036C126.327 16.4498 127.069 15.8961 127.941 15.5427C128.836 15.1658 129.814 14.9773 130.874 14.9773C132.099 14.9773 133.183 15.2129 134.125 15.6841C135.091 16.1553 135.845 16.8738 136.387 17.8397C136.952 18.7821 137.235 19.9718 137.235 21.4089V33H132.393V22.7871C132.393 21.2794 132.099 20.2428 131.51 19.6773C130.921 19.0884 130.155 18.7939 129.213 18.7939C128.553 18.7939 127.905 18.9588 127.269 19.2886C126.657 19.5949 126.15 20.1014 125.75 20.8082C125.373 21.515 125.184 22.4573 125.184 23.6353V33H120.343ZM155.686 11.1254L156.252 14.5886C156.158 14.5886 156.052 14.5886 155.934 14.5886C155.84 14.565 155.734 14.5532 155.616 14.5532C154.532 14.5532 153.719 14.8006 153.177 15.2954C152.636 15.7665 152.365 16.4262 152.365 17.2743L150.386 16.4615C150.386 15.5192 150.574 14.6475 150.951 13.8465C151.328 13.0219 151.882 12.3623 152.612 11.8675C153.366 11.3728 154.261 11.1254 155.298 11.1254C155.345 11.1254 155.404 11.1254 155.474 11.1254C155.545 11.1254 155.616 11.1254 155.686 11.1254ZM149.891 29.6782C151.799 29.6782 153.272 30.0905 154.308 30.915C155.345 31.7396 155.863 32.894 155.863 34.3782C155.863 35.7211 155.474 36.8519 154.697 37.7707C153.92 38.7131 152.824 39.4198 151.411 39.891C150.021 40.3622 148.407 40.5978 146.569 40.5978C143.53 40.5978 141.304 40.1737 139.89 39.3256C138.5 38.4775 137.805 37.3702 137.805 36.0038C137.805 35.0379 138.17 34.2251 138.901 33.5654C139.655 32.9058 140.891 32.5406 142.611 32.4699L142.435 33.0353C141.209 32.8233 140.267 32.4228 139.607 31.8338C138.971 31.2213 138.653 30.3849 138.653 29.3248C138.653 28.2411 139.066 27.3576 139.89 26.6744C140.738 25.9676 141.881 25.5553 143.318 25.4375L145.438 26.427H144.944C143.931 26.4977 143.212 26.7097 142.788 27.0631C142.387 27.3929 142.187 27.7699 142.187 28.1939C142.187 28.6887 142.376 29.0656 142.753 29.3248C143.153 29.5604 143.718 29.6782 144.449 29.6782H149.891ZM146.604 37.276C147.83 37.276 148.831 37.17 149.608 36.9579C150.409 36.7459 150.998 36.475 151.375 36.1451C151.776 35.8153 151.976 35.4501 151.976 35.0496C151.976 34.602 151.799 34.2369 151.446 33.9541C151.092 33.695 150.456 33.5654 149.538 33.5654H143.565C143 33.5654 142.529 33.7068 142.152 33.9895C141.798 34.2722 141.622 34.6609 141.622 35.1557C141.622 35.8153 142.058 36.3336 142.929 36.7106C143.825 37.0875 145.05 37.276 146.604 37.276ZM146.64 14.9773C148.289 14.9773 149.714 15.2247 150.916 15.7194C152.141 16.1906 153.071 16.8738 153.708 17.7691C154.367 18.6643 154.697 19.7362 154.697 20.9849C154.697 22.2099 154.367 23.2701 153.708 24.1653C153.071 25.0606 152.141 25.7556 150.916 26.2503C149.714 26.7215 148.289 26.9571 146.64 26.9571C144.025 26.9571 142.022 26.427 140.632 25.3669C139.266 24.2831 138.583 22.8225 138.583 20.9849C138.583 19.7362 138.901 18.6643 139.537 17.7691C140.196 16.8738 141.127 16.1906 142.329 15.7194C143.53 15.2247 144.967 14.9773 146.64 14.9773ZM146.64 18.0164C145.697 18.0164 144.92 18.2756 144.307 18.7939C143.695 19.3122 143.389 20.0307 143.389 20.9495C143.389 21.8683 143.695 22.5987 144.307 23.1405C144.92 23.6588 145.697 23.918 146.64 23.918C147.582 23.918 148.348 23.6588 148.937 23.1405C149.549 22.5987 149.856 21.8683 149.856 20.9495C149.856 20.0307 149.549 19.3122 148.937 18.7939C148.348 18.2756 147.582 18.0164 146.64 18.0164Z" fill="#388A90"/>
</svg>
